<?xml version="1.0" encoding="UTF-8" standalone="no"?>
<!DOCTYPE svg PUBLIC "-//W3C//DTD SVG 1.1//EN" "http://www.w3.org/Graphics/SVG/1.1/DTD/svg11.dtd">
<svg xmlns="http://www.w3.org/2000/svg" version="1.1" viewBox="0 0 558 558">
<g stroke-width="2.00" fill="none" stroke-linecap="butt">
<path stroke="#885f53" stroke-opacity="0.996" vector-effect="non-scaling-stroke" d="
  M 298.95 53.23
  Q 306.23 54.60 313.52 53.14"
/>
<path stroke="#936c61" stroke-opacity="0.996" vector-effect="non-scaling-stroke" d="
  M 338.96 55.82
  Q 354.55 59.64 369.46 65.50"
/>
<path stroke="#9a7b6c" stroke-opacity="0.992" vector-effect="non-scaling-stroke" d="
  M 369.46 65.50
  L 383.75 73.46"
/>
<path stroke="#9a7b6c" stroke-opacity="0.992" vector-effect="non-scaling-stroke" d="
  M 383.75 73.46
  Q 399.21 83.64 407.75 100.04"
/>
<path stroke="#9a7b6c" stroke-opacity="0.992" vector-effect="non-scaling-stroke" d="
  M 407.75 100.04
  L 409.50 104.29"
/>
<path stroke="#9a7b6c" stroke-opacity="0.992" vector-effect="non-scaling-stroke" d="
  M 409.50 104.29
  L 411.29 110.25"
/>
<path stroke="#815649" stroke-opacity="0.996" vector-effect="non-scaling-stroke" d="
  M 411.29 110.25
  L 411.61 113.27
  Q 411.68 113.98 411.65 114.25
  Q 411.49 115.59 412.71 116.00"
/>
<path stroke="#815649" stroke-opacity="0.996" vector-effect="non-scaling-stroke" d="
  M 412.79 118.00
  Q 411.94 123.26 412.96 128.54"
/>
<path stroke="#815649" stroke-opacity="0.996" vector-effect="non-scaling-stroke" d="
  M 412.56 131.69
  L 411.29 137.25"
/>
<path stroke="#936c61" stroke-opacity="0.996" vector-effect="non-scaling-stroke" d="
  M 411.29 137.25
  L 410.79 140.00"
/>
<path stroke="#885f53" stroke-opacity="0.996" vector-effect="non-scaling-stroke" d="
  M 410.79 140.00
  Q 410.23 140.90 410.58 141.76
  A 1.22 0.83 4.9 0 0 411.29 142.34
  Q 423.63 146.21 432.09 156.15"
/>
<path stroke="#815649" stroke-opacity="0.996" vector-effect="non-scaling-stroke" d="
  M 433.25 157.46
  Q 433.97 161.00 436.96 163.20"
/>
<path stroke="#815649" stroke-opacity="0.996" vector-effect="non-scaling-stroke" d="
  M 441.17 172.47
  Q 442.00 178.59 444.76 184.09"
/>
<path stroke="#885f53" stroke-opacity="0.996" vector-effect="non-scaling-stroke" d="
  M 447.63 205.19
  Q 446.71 217.59 447.58 230.01"
/>
<path stroke="#815649" stroke-opacity="0.996" vector-effect="non-scaling-stroke" d="
  M 447.25 236.92
  Q 445.55 240.06 446.86 243.56"
/>
<path stroke="#815649" stroke-opacity="0.996" vector-effect="non-scaling-stroke" d="
  M 446.46 247.75
  C 444.92 248.12 445.27 251.37 446.00 252.29"
/>
<path stroke="#815649" stroke-opacity="0.996" vector-effect="non-scaling-stroke" d="
  M 444.71 263.75
  Q 443.28 266.21 443.96 269.00"
/>
<path stroke="#936c61" stroke-opacity="0.996" vector-effect="non-scaling-stroke" d="
  M 443.96 269.50
  C 442.80 270.22 443.28 271.56 443.10 272.52
  Q 441.71 279.72 440.79 287.00"
/>
<path stroke="#885f53" stroke-opacity="0.996" vector-effect="non-scaling-stroke" d="
  M 440.79 287.00
  Q 438.55 294.85 437.86 302.99"
/>
<path stroke="#815649" stroke-opacity="0.996" vector-effect="non-scaling-stroke" d="
  M 436.71 308.25
  Q 435.54 309.88 435.50 311.96"
/>
<path stroke="#936c61" stroke-opacity="0.996" vector-effect="non-scaling-stroke" d="
  M 435.50 311.96
  L 434.29 316.25"
/>
<path stroke="#9a7b6c" stroke-opacity="0.992" vector-effect="non-scaling-stroke" d="
  M 434.29 316.25
  L 432.79 322.00"
/>
<path stroke="#815649" stroke-opacity="0.996" vector-effect="non-scaling-stroke" d="
  M 432.79 322.00
  L 427.75 339.21"
/>
<path stroke="#885f53" stroke-opacity="0.996" vector-effect="non-scaling-stroke" d="
  M 427.75 339.21
  L 422.79 352.00"
/>
<path stroke="#885f53" stroke-opacity="0.996" vector-effect="non-scaling-stroke" d="
  M 422.79 352.00
  L 419.29 360.75"
/>
<path stroke="#936c61" stroke-opacity="0.996" vector-effect="non-scaling-stroke" d="
  M 419.29 360.75
  L 409.75 378.96"
/>
<path stroke="#936c61" stroke-opacity="0.996" vector-effect="non-scaling-stroke" d="
  M 409.75 378.96
  L 400.75 392.71"
/>
<path stroke="#9a7b6c" stroke-opacity="0.992" vector-effect="non-scaling-stroke" d="
  M 400.75 392.71
  Q 394.76 400.21 387.85 406.86
  C 385.14 409.47 384.76 411.66 385.00 415.21"
/>
<path stroke="#936c61" stroke-opacity="0.996" vector-effect="non-scaling-stroke" d="
  M 385.00 415.21
  L 384.04 418.00"
/>
<path stroke="#885f53" stroke-opacity="0.996" vector-effect="non-scaling-stroke" d="
  M 384.04 418.00
  Q 381.12 427.40 375.96 435.75"
/>
<path stroke="#815649" stroke-opacity="0.996" vector-effect="non-scaling-stroke" d="
  M 375.96 435.75
  L 371.00 441.71"
/>
<path stroke="#885f53" stroke-opacity="0.996" vector-effect="non-scaling-stroke" d="
  M 371.00 441.71
  Q 363.86 448.92 355.44 453.44
  C 335.71 464.03 313.97 473.28 293.25 483.21"
/>
<path stroke="#936c61" stroke-opacity="0.996" vector-effect="non-scaling-stroke" d="
  M 293.25 483.21
  Q 291.14 483.65 289.79 485.25"
/>
<path stroke="#885f53" stroke-opacity="0.996" vector-effect="non-scaling-stroke" d="
  M 284.91 487.18
  Q 263.30 495.13 241.26 501.80
  Q 230.49 505.06 219.25 504.21"
/>
<path stroke="#815649" stroke-opacity="0.996" vector-effect="non-scaling-stroke" d="
  M 219.25 504.21
  Q 217.45 503.48 215.50 503.54"
/>
<path stroke="#885f53" stroke-opacity="0.996" vector-effect="non-scaling-stroke" d="
  M 215.50 503.54
  Q 205.67 500.15 197.68 493.43"
/>
<path stroke="#885f53" stroke-opacity="0.996" vector-effect="non-scaling-stroke" d="
  M 191.10 487.23
  Q 188.28 482.51 184.25 478.79"
/>
<path stroke="#885f53" stroke-opacity="0.996" vector-effect="non-scaling-stroke" d="
  M 183.25 477.79
  C 184.48 477.88 178.08 469.09 175.56 465.49"
/>
<path stroke="#885f53" stroke-opacity="0.996" vector-effect="non-scaling-stroke" d="
  M 174.25 463.79
  C 174.72 463.17 169.13 452.67 167.79 449.75"
/>
<path stroke="#936c61" stroke-opacity="0.996" vector-effect="non-scaling-stroke" d="
  M 167.79 449.75
  Q 166.53 445.68 164.08 442.20"
/>
<path stroke="#885f53" stroke-opacity="0.996" vector-effect="non-scaling-stroke" d="
  M 161.24 432.46
  Q 159.07 420.88 155.33 409.67"
/>
<path stroke="#885f53" stroke-opacity="0.996" vector-effect="non-scaling-stroke" d="
  M 153.26 399.72
  Q 151.66 386.88 149.00 374.21"
/>
<path stroke="#9a7b6c" stroke-opacity="0.992" vector-effect="non-scaling-stroke" d="
  M 149.00 374.21
  L 148.29 368.50"
/>
<path stroke="#936c61" stroke-opacity="0.996" vector-effect="non-scaling-stroke" d="
  M 148.29 368.50
  Q 148.35 366.10 147.20 364.17"
/>
<path stroke="#936c61" stroke-opacity="0.996" vector-effect="non-scaling-stroke" d="
  M 147.04 361.50
  Q 147.48 358.86 146.29 356.50"
/>
<path stroke="#936c61" stroke-opacity="0.996" vector-effect="non-scaling-stroke" d="
  M 146.04 354.25
  C 146.34 353.22 146.14 346.40 145.29 350.75"
/>
<path stroke="#815649" stroke-opacity="0.996" vector-effect="non-scaling-stroke" d="
  M 145.50 345.32
  C 146.24 337.06 142.88 330.10 141.37 322.78
  Q 141.08 321.39 140.79 322.75"
/>
<path stroke="#815649" stroke-opacity="0.996" vector-effect="non-scaling-stroke" d="
  M 140.68 320.99
  Q 139.68 310.64 137.37 300.48"
/>
<path stroke="#815649" stroke-opacity="0.996" vector-effect="non-scaling-stroke" d="
  M 134.25 271.04
  Q 135.62 266.36 133.54 262.00"
/>
<path stroke="#885f53" stroke-opacity="0.996" vector-effect="non-scaling-stroke" d="
  M 133.29 260.00
  Q 134.54 254.42 132.79 249.00"
/>
<path stroke="#936c61" stroke-opacity="0.996" vector-effect="non-scaling-stroke" d="
  M 132.57 246.11
  Q 133.64 240.64 132.22 235.20"
/>
<path stroke="#9a7b6c" stroke-opacity="0.992" vector-effect="non-scaling-stroke" d="
  M 131.58 227.30
  Q 132.73 220.22 131.18 213.22"
/>
<path stroke="#936c61" stroke-opacity="0.996" vector-effect="non-scaling-stroke" d="
  M 130.77 184.52
  Q 131.88 177.12 130.59 169.73"
/>
<path stroke="#885f53" stroke-opacity="0.996" vector-effect="non-scaling-stroke" d="
  M 130.99 165.23
  Q 119.51 148.75 113.76 129.47"
/>
<path stroke="#815649" stroke-opacity="0.996" vector-effect="non-scaling-stroke" d="
  M 110.29 107.54
  Q 111.43 97.75 110.31 87.95"
/>
<path stroke="#885f53" stroke-opacity="0.996" vector-effect="non-scaling-stroke" d="
  M 118.00 57.46
  C 116.06 60.02 138.35 70.09 140.25 70.79"
/>
<path stroke="#936c61" stroke-opacity="0.996" vector-effect="non-scaling-stroke" d="
  M 140.25 70.79
  C 165.38 79.58 188.89 79.38 215.03 74.13"
/>
<path stroke="#885f53" stroke-opacity="0.996" vector-effect="non-scaling-stroke" d="
  M 215.03 74.13
  Q 226.87 71.97 238.28 68.10"
/>
<path stroke="#885f53" stroke-opacity="0.996" vector-effect="non-scaling-stroke" d="
  M 238.79 67.50
  C 239.22 67.94 239.33 67.66 239.69 67.51
  Q 251.40 62.39 263.75 59.04"
/>
<path stroke="#885f53" stroke-opacity="0.996" vector-effect="non-scaling-stroke" d="
  M 263.75 59.04
  L 273.53 56.36"
/>
<path stroke="#815649" stroke-opacity="0.996" vector-effect="non-scaling-stroke" d="
  M 288.00 54.04
  Q 291.09 55.47 293.71 53.50"
/>
<path stroke="#b19692" stroke-opacity="0.992" vector-effect="non-scaling-stroke" d="
  M 215.03 74.13
  L 215.00 73.54"
/>
<path stroke="#c3b2ab" stroke-opacity="0.988" vector-effect="non-scaling-stroke" d="
  M 401.21 392.75
  L 400.75 392.71"
/>
<path stroke="#b29d92" stroke-opacity="0.988" vector-effect="non-scaling-stroke" d="
  M 411.71 110.25
  L 411.29 110.25"
/>
<path stroke="#b29d92" stroke-opacity="0.988" vector-effect="non-scaling-stroke" d="
  M 433.46 322.00
  L 432.79 322.00"
/>
<path stroke="#b19692" stroke-opacity="0.992" vector-effect="non-scaling-stroke" d="
  M 419.75 360.79
  L 419.29 360.75"
/>
<path stroke="#c3b2ab" stroke-opacity="0.988" vector-effect="non-scaling-stroke" d="
  M 434.96 316.25
  L 434.29 316.25"
/>
<path stroke="#9f8079" stroke-opacity="0.992" vector-effect="non-scaling-stroke" d="
  M 219.00 504.71
  Q 218.92 504.31 219.25 504.21"
/>
<path stroke="#9f8079" stroke-opacity="0.992" vector-effect="non-scaling-stroke" d="
  M 376.25 436.04
  Q 376.02 435.98 375.96 435.75"
/>
<path stroke="#b19692" stroke-opacity="0.992" vector-effect="non-scaling-stroke" d="
  M 411.25 140.04
  L 410.79 140.00"
/>
<path stroke="#ab8e88" stroke-opacity="0.992" vector-effect="non-scaling-stroke" d="
  M 435.75 312.04
  L 435.50 311.96"
/>
<path stroke="#b19692" stroke-opacity="0.992" vector-effect="non-scaling-stroke" d="
  M 294.00 483.54
  Q 293.68 483.25 293.25 483.21"
/>
<path stroke="#bca3a0" stroke-opacity="0.992" vector-effect="non-scaling-stroke" d="
  M 410.25 379.04
  L 409.75 378.96"
/>
<path stroke="#9f8079" stroke-opacity="0.992" vector-effect="non-scaling-stroke" d="
  M 371.29 442.00
  Q 371.23 441.77 371.00 441.71"
/>
<path stroke="#c3b2ab" stroke-opacity="0.988" vector-effect="non-scaling-stroke" d="
  M 369.56 64.92
  L 369.46 65.50"
/>
<path stroke="#9f8079" stroke-opacity="0.992" vector-effect="non-scaling-stroke" d="
  M 215.50 503.54
  L 215.46 503.75"
/>
<path stroke="#b19692" stroke-opacity="0.992" vector-effect="non-scaling-stroke" d="
  M 441.21 287.75
  L 440.79 287.00"
/>
<path stroke="#9f8079" stroke-opacity="0.992" vector-effect="non-scaling-stroke" d="
  M 427.96 339.25
  L 427.75 339.21"
/>
<path stroke="#b19692" stroke-opacity="0.992" vector-effect="non-scaling-stroke" d="
  M 384.50 418.04
  L 384.04 418.00"
/>
<path stroke="#c3b2ab" stroke-opacity="0.988" vector-effect="non-scaling-stroke" d="
  M 385.29 415.50
  Q 385.23 415.27 385.00 415.21"
/>
<path stroke="#b19692" stroke-opacity="0.992" vector-effect="non-scaling-stroke" d="
  M 140.75 70.54
  Q 140.60 70.84 140.25 70.79"
/>
<path stroke="#c3b2ab" stroke-opacity="0.988" vector-effect="non-scaling-stroke" d="
  M 148.29 368.50
  L 147.96 369.00"
/>
<path stroke="#ab8e88" stroke-opacity="0.992" vector-effect="non-scaling-stroke" d="
  M 411.71 137.25
  L 411.29 137.25"
/>
<path stroke="#b19692" stroke-opacity="0.992" vector-effect="non-scaling-stroke" d="
  M 167.79 449.75
  Q 167.83 450.33 167.29 450.25"
/>
<path stroke="#b0795c" vector-effect="non-scaling-stroke" d="
  M 349.95 200.76
  C 305.47 210.96 257.30 215.30 212.07 207.40
  C 192.62 204.00 171.54 197.39 155.37 185.69
  A 0.53 0.53 -66.2 0 0 154.55 186.01
  Q 140.53 250.04 143.38 315.25
  C 143.96 328.39 146.96 346.52 154.53 357.52
  C 162.17 368.63 176.67 376.01 189.11 380.30
  Q 198.56 383.56 208.00 381.00
  Q 243.56 371.37 278.94 380.56
  C 286.04 382.41 302.16 387.24 311.61 387.31
  C 338.84 387.52 355.43 357.73 364.56 336.07
  Q 365.04 334.93 365.14 333.69
  Q 368.09 296.02 368.68 259.51
  C 368.82 250.63 369.51 240.53 368.00 231.50
  Q 365.01 213.66 351.92 201.30
  A 2.16 2.16 60.3 0 0 349.95 200.76"
/>
<path stroke="#b0795c" vector-effect="non-scaling-stroke" d="
  M 374.16 362.96
  C 377.24 371.07 386.95 373.07 394.73 370.92
  C 404.47 368.24 410.81 362.26 416.59 353.74
  C 424.44 342.19 434.00 316.72 416.75 308.25
  C 395.40 297.77 382.69 315.61 376.94 333.44
  C 374.14 342.12 371.06 354.78 374.16 362.96"
/>
<path stroke="#936c61" stroke-opacity="0.996" vector-effect="non-scaling-stroke" d="
  M 201.46 415.00
  L 202.96 418.25"
/>
<path stroke="#9a7b6c" stroke-opacity="0.992" vector-effect="non-scaling-stroke" d="
  M 202.96 418.25
  Q 204.74 422.83 208.37 426.10"
/>
<path stroke="#885f53" stroke-opacity="0.996" vector-effect="non-scaling-stroke" d="
  M 212.10 430.36
  C 218.91 437.46 231.46 443.41 241.75 441.29"
/>
<path stroke="#815649" stroke-opacity="0.996" vector-effect="non-scaling-stroke" d="
  M 246.21 441.25
  Q 248.54 442.19 248.25 440.29"
/>
<path stroke="#936c61" stroke-opacity="0.996" vector-effect="non-scaling-stroke" d="
  M 250.54 440.45
  Q 262.91 437.77 271.21 428.25"
/>
<path stroke="#885f53" stroke-opacity="0.996" vector-effect="non-scaling-stroke" d="
  M 271.79 427.25
  Q 275.00 424.73 276.71 421.00"
/>
<path stroke="#936c61" stroke-opacity="0.996" vector-effect="non-scaling-stroke" d="
  M 276.71 421.00
  L 278.29 418.00"
/>
<path stroke="#815649" stroke-opacity="0.996" vector-effect="non-scaling-stroke" d="
  M 278.29 418.00
  L 279.50 415.29"
/>
<path stroke="#885f53" stroke-opacity="0.996" vector-effect="non-scaling-stroke" d="
  M 279.50 415.29
  Q 280.72 413.18 280.71 410.75"
/>
<path stroke="#936c61" stroke-opacity="0.996" vector-effect="non-scaling-stroke" d="
  M 280.89 409.57
  C 282.15 406.96 285.09 398.17 279.69 398.19
  Q 240.22 398.30 200.49 398.25
  A 1.54 1.53 2.9 0 0 198.96 399.63
  Q 198.14 407.46 201.46 415.00"
/>
<path stroke="#bca3a0" stroke-opacity="0.992" vector-effect="non-scaling-stroke" d="
  M 201.71 414.25
  Q 201.38 414.51 201.46 415.00"
/>
<path stroke="#c3b2ab" stroke-opacity="0.988" vector-effect="non-scaling-stroke" d="
  M 203.21 417.50
  Q 202.88 417.76 202.96 418.25"
/>
<path stroke="#ab8e88" stroke-opacity="0.992" vector-effect="non-scaling-stroke" d="
  M 278.29 418.00
  Q 278.23 417.77 278.00 417.71"
/>
<path stroke="#9f8079" stroke-opacity="0.992" vector-effect="non-scaling-stroke" d="
  M 279.50 415.29
  Q 279.24 415.34 279.04 415.50"
/>
<path stroke="#b19692" stroke-opacity="0.992" vector-effect="non-scaling-stroke" d="
  M 276.71 421.00
  Q 276.31 421.08 276.21 420.75"
/>
<path stroke="#b0795c" vector-effect="non-scaling-stroke" d="
  M 210.22 264.19
  C 222.77 266.04 225.80 248.29 212.75 246.50
  Q 188.08 243.11 164.87 246.26
  Q 160.48 246.85 158.43 248.23
  C 150.16 253.77 156.05 265.48 166.00 264.00
  Q 187.29 260.82 210.22 264.19"
/>
<path stroke="#b0795c" vector-effect="non-scaling-stroke" d="
  M 263.16 248.57
  C 255.96 254.12 261.31 265.42 270.31 264.06
  C 284.20 261.97 299.45 261.76 313.89 263.94
  Q 318.11 264.57 319.25 264.25
  C 326.26 262.26 329.33 253.09 323.33 248.60
  Q 321.28 247.08 316.43 246.36
  Q 292.81 242.87 269.20 246.48
  Q 265.05 247.11 263.16 248.57"
/>
<path stroke="#937868" vector-effect="non-scaling-stroke" d="
  M 189.1154 302.9700
  A 14.55 9.99 89.9 0 0 199.0800 288.4026
  A 14.55 9.99 89.9 0 0 189.0646 273.8700
  A 14.55 9.99 89.9 0 0 179.1000 288.4374
  A 14.55 9.99 89.9 0 0 189.1154 302.9700"
/>
<path stroke="#937868" vector-effect="non-scaling-stroke" d="
  M 295.9800 302.9500
  A 14.53 10.00 90.0 0 0 305.9800 288.4200
  A 14.53 10.00 90.0 0 0 295.9800 273.8900
  A 14.53 10.00 90.0 0 0 285.9800 288.4200
  A 14.53 10.00 90.0 0 0 295.9800 302.9500"
/>
<path stroke="#f5b388" vector-effect="non-scaling-stroke" d="
  M 220.48 341.03
  C 220.85 368.18 256.96 367.10 260.57 343.35
  A 1.01 1.01 -5.5 0 0 259.23 342.25
  C 250.91 345.21 241.24 348.74 232.86 345.80
  Q 227.15 343.80 221.19 340.60
  A 0.48 0.48 13.6 0 0 220.48 341.03"
/>
</g>
<path fill="#6a3523" d="
  M 298.95 53.23
  Q 306.23 54.60 313.52 53.14
  Q 326.38 53.07 338.96 55.82
  Q 354.55 59.64 369.46 65.50
  L 383.75 73.46
  Q 399.21 83.64 407.75 100.04
  L 409.50 104.29
  L 411.29 110.25
  L 411.61 113.27
  Q 411.68 113.98 411.65 114.25
  Q 411.49 115.59 412.71 116.00
  L 412.79 118.00
  Q 411.94 123.26 412.96 128.54
  L 412.56 131.69
  L 411.29 137.25
  L 410.79 140.00
  Q 410.23 140.90 410.58 141.76
  A 1.22 0.83 4.9 0 0 411.29 142.34
  Q 423.63 146.21 432.09 156.15
  L 433.25 157.46
  Q 433.97 161.00 436.96 163.20
  Q 439.81 167.32 441.17 172.47
  Q 442.00 178.59 444.76 184.09
  Q 447.66 194.42 447.63 205.19
  Q 446.71 217.59 447.58 230.01
  L 447.25 236.92
  Q 445.55 240.06 446.86 243.56
  L 446.46 247.75
  C 444.92 248.12 445.27 251.37 446.00 252.29
  Q 446.06 258.12 444.71 263.75
  Q 443.28 266.21 443.96 269.00
  Q 444.04 269.25 443.96 269.50
  C 442.80 270.22 443.28 271.56 443.10 272.52
  Q 441.71 279.72 440.79 287.00
  Q 438.55 294.85 437.86 302.99
  Q 437.81 305.71 436.71 308.25
  Q 435.54 309.88 435.50 311.96
  L 434.29 316.25
  L 432.79 322.00
  L 427.75 339.21
  L 422.79 352.00
  L 419.29 360.75
  L 409.75 378.96
  L 400.75 392.71
  Q 394.76 400.21 387.85 406.86
  C 385.14 409.47 384.76 411.66 385.00 415.21
  L 384.04 418.00
  Q 381.12 427.40 375.96 435.75
  L 371.00 441.71
  Q 363.86 448.92 355.44 453.44
  C 335.71 464.03 313.97 473.28 293.25 483.21
  Q 291.14 483.65 289.79 485.25
  L 284.91 487.18
  Q 263.30 495.13 241.26 501.80
  Q 230.49 505.06 219.25 504.21
  Q 217.45 503.48 215.50 503.54
  Q 205.67 500.15 197.68 493.43
  Q 193.88 490.91 191.10 487.23
  Q 188.28 482.51 184.25 478.79
  Q 183.65 478.39 183.25 477.79
  C 184.48 477.88 178.08 469.09 175.56 465.49
  L 174.25 463.79
  C 174.72 463.17 169.13 452.67 167.79 449.75
  Q 166.53 445.68 164.08 442.20
  Q 162.06 437.55 161.24 432.46
  Q 159.07 420.88 155.33 409.67
  L 153.26 399.72
  Q 151.66 386.88 149.00 374.21
  L 148.29 368.50
  Q 148.35 366.10 147.20 364.17
  Q 146.82 362.94 147.04 361.50
  Q 147.48 358.86 146.29 356.50
  L 146.04 354.25
  C 146.34 353.22 146.14 346.40 145.29 350.75
  L 145.50 345.32
  C 146.24 337.06 142.88 330.10 141.37 322.78
  Q 141.08 321.39 140.79 322.75
  L 140.68 320.99
  Q 139.68 310.64 137.37 300.48
  Q 135.10 285.85 134.25 271.04
  Q 135.62 266.36 133.54 262.00
  Q 133.11 261.05 133.29 260.00
  Q 134.54 254.42 132.79 249.00
  L 132.57 246.11
  Q 133.64 240.64 132.22 235.20
  L 131.58 227.30
  Q 132.73 220.22 131.18 213.22
  L 130.77 184.52
  Q 131.88 177.12 130.59 169.73
  Q 130.04 167.88 130.99 165.23
  Q 119.51 148.75 113.76 129.47
  Q 110.37 118.71 110.29 107.54
  Q 111.43 97.75 110.31 87.95
  Q 110.98 71.90 114.75 56.24
  A 0.79 0.76 26.7 0 1 116.00 55.86
  L 118.00 57.46
  C 116.06 60.02 138.35 70.09 140.25 70.79
  C 165.38 79.58 188.89 79.38 215.03 74.13
  Q 226.87 71.97 238.28 68.10
  Q 238.80 68.04 238.79 67.50
  C 239.22 67.94 239.33 67.66 239.69 67.51
  Q 251.40 62.39 263.75 59.04
  L 273.53 56.36
  L 288.00 54.04
  Q 291.09 55.47 293.71 53.50
  Q 296.37 52.55 298.95 53.23
  Z
  M 349.95 200.76
  C 305.47 210.96 257.30 215.30 212.07 207.40
  C 192.62 204.00 171.54 197.39 155.37 185.69
  A 0.53 0.53 -66.2 0 0 154.55 186.01
  Q 140.53 250.04 143.38 315.25
  C 143.96 328.39 146.96 346.52 154.53 357.52
  C 162.17 368.63 176.67 376.01 189.11 380.30
  Q 198.56 383.56 208.00 381.00
  Q 243.56 371.37 278.94 380.56
  C 286.04 382.41 302.16 387.24 311.61 387.31
  C 338.84 387.52 355.43 357.73 364.56 336.07
  Q 365.04 334.93 365.14 333.69
  Q 368.09 296.02 368.68 259.51
  C 368.82 250.63 369.51 240.53 368.00 231.50
  Q 365.01 213.66 351.92 201.30
  A 2.16 2.16 60.3 0 0 349.95 200.76
  Z
  M 374.16 362.96
  C 377.24 371.07 386.95 373.07 394.73 370.92
  C 404.47 368.24 410.81 362.26 416.59 353.74
  C 424.44 342.19 434.00 316.72 416.75 308.25
  C 395.40 297.77 382.69 315.61 376.94 333.44
  C 374.14 342.12 371.06 354.78 374.16 362.96
  Z
  M 201.46 415.00
  L 202.96 418.25
  Q 204.74 422.83 208.37 426.10
  L 212.10 430.36
  C 218.91 437.46 231.46 443.41 241.75 441.29
  L 246.21 441.25
  Q 248.54 442.19 248.25 440.29
  Q 249.35 440.07 250.54 440.45
  Q 262.91 437.77 271.21 428.25
  Q 271.66 427.83 271.79 427.25
  Q 275.00 424.73 276.71 421.00
  L 278.29 418.00
  L 279.50 415.29
  Q 280.72 413.18 280.71 410.75
  Q 280.68 410.08 280.89 409.57
  C 282.15 406.96 285.09 398.17 279.69 398.19
  Q 240.22 398.30 200.49 398.25
  A 1.54 1.53 2.9 0 0 198.96 399.63
  Q 198.14 407.46 201.46 415.00
  Z"
/>
<path fill="#a68983" fill-opacity="0.988" d="
  M 313.52 53.14
  Q 306.23 54.60 298.95 53.23
  Q 306.28 52.26 313.52 53.14
  Z"
/>
<path fill="#99786f" fill-opacity="0.992" d="
  M 293.71 53.50
  Q 291.09 55.47 288.00 54.04
  L 293.71 53.50
  Z"
/>
<path fill="#bca3a0" fill-opacity="0.992" d="
  M 338.96 55.82
  Q 354.87 58.29 369.56 64.92
  L 369.46 65.50
  Q 354.55 59.64 338.96 55.82
  Z"
/>
<path fill="#a68983" fill-opacity="0.988" d="
  M 273.53 56.36
  L 263.75 59.04
  Q 263.52 58.98 263.46 58.75
  Q 268.27 56.76 273.53 56.36
  Z"
/>
<path fill="#a68983" fill-opacity="0.988" d="
  M 118.00 57.46
  C 120.36 59.41 133.53 68.99 135.96 67.28
  Q 136.18 67.12 136.13 67.38
  Q 135.87 68.94 137.00 68.85
  Q 137.37 68.82 137.93 68.99
  Q 138.50 69.16 139.41 68.87
  A 0.40 0.40 -10.2 0 1 139.93 69.23
  Q 139.99 70.16 140.75 70.54
  Q 140.60 70.84 140.25 70.79
  C 138.35 70.09 116.06 60.02 118.00 57.46
  Z"
/>
<path fill="#a68983" fill-opacity="0.988" d="
  M 263.46 58.75
  Q 263.52 58.98 263.75 59.04
  Q 251.40 62.39 239.69 67.51
  C 239.33 67.66 239.22 67.94 238.79 67.50
  Q 237.70 66.74 238.25 66.29
  A 0.52 0.40 55.3 0 1 238.91 66.50
  C 239.70 67.76 240.66 66.38 241.39 66.05
  Q 252.03 61.23 263.46 58.75
  Z"
/>
<path fill="#cbc2b6" fill-opacity="0.984" d="
  M 369.56 64.92
  Q 377.09 68.26 383.79 73.00
  L 383.75 73.46
  L 369.46 65.50
  L 369.56 64.92
  Z"
/>
<path fill="#a68983" fill-opacity="0.988" d="
  M 238.28 68.10
  Q 226.87 71.97 215.03 74.13
  L 215.00 73.54
  Q 222.88 72.01 230.50 69.50
  Q 232.47 68.85 233.25 68.75
  L 238.28 68.10
  Z"
/>
<path fill="#bca3a0" fill-opacity="0.992" d="
  M 140.75 70.54
  C 145.28 71.35 150.23 73.47 156.20 74.66
  C 175.06 78.41 196.21 77.35 215.00 73.54
  L 215.03 74.13
  C 188.89 79.38 165.38 79.58 140.25 70.79
  Q 140.60 70.84 140.75 70.54
  Z"
/>
<path fill="#cbc2b6" fill-opacity="0.984" d="
  M 383.79 73.00
  C 386.67 74.05 388.50 76.11 390.89 77.98
  C 397.74 83.31 403.27 90.36 406.96 97.03
  C 407.56 98.13 408.65 98.51 408.21 100.25
  Q 407.99 100.07 407.75 100.04
  Q 399.21 83.64 383.75 73.46
  L 383.79 73.00
  Z"
/>
<path fill="#99786f" fill-opacity="0.992" d="
  M 110.31 87.95
  Q 111.43 97.75 110.29 107.54
  Q 109.01 97.70 110.31 87.95
  Z"
/>
<path fill="#cbc2b6" fill-opacity="0.984" d="
  M 407.75 100.04
  Q 407.99 100.07 408.21 100.25
  Q 409.81 102.22 410.21 104.75
  Q 409.77 104.67 409.50 104.29
  L 407.75 100.04
  Z"
/>
<path fill="#cbc2b6" fill-opacity="0.984" d="
  M 409.50 104.29
  Q 409.77 104.67 410.21 104.75
  Q 411.59 107.33 411.71 110.25
  L 411.29 110.25
  L 409.50 104.29
  Z"
/>
<path fill="#99786f" fill-opacity="0.992" d="
  M 411.29 110.25
  L 411.71 110.25
  Q 412.77 113.05 412.71 116.00
  Q 411.49 115.59 411.65 114.25
  Q 411.68 113.98 411.61 113.27
  L 411.29 110.25
  Z"
/>
<path fill="#99786f" fill-opacity="0.992" d="
  M 412.79 118.00
  Q 414.43 123.15 412.96 128.54
  Q 411.94 123.26 412.79 118.00
  Z"
/>
<path fill="#a68983" fill-opacity="0.988" d="
  M 113.76 129.47
  Q 119.51 148.75 130.99 165.23
  Q 127.74 161.76 125.30 157.78
  C 119.99 149.13 115.37 139.40 113.76 129.47
  Z"
/>
<path fill="#99786f" fill-opacity="0.992" d="
  M 412.56 131.69
  Q 413.02 134.65 411.71 137.25
  L 411.29 137.25
  L 412.56 131.69
  Z"
/>
<path fill="#bca3a0" fill-opacity="0.992" d="
  M 411.29 137.25
  L 411.71 137.25
  Q 412.14 138.80 411.25 140.04
  L 410.79 140.00
  L 411.29 137.25
  Z"
/>
<path fill="#a68983" fill-opacity="0.988" d="
  M 410.79 140.00
  L 411.25 140.04
  C 412.00 143.09 414.37 142.46 416.22 143.25
  Q 425.95 147.38 432.09 156.15
  Q 423.63 146.21 411.29 142.34
  A 1.22 0.83 4.9 0 1 410.58 141.76
  Q 410.23 140.90 410.79 140.00
  Z"
/>
<path fill="#99786f" fill-opacity="0.992" d="
  M 433.25 157.46
  Q 435.60 159.81 436.96 163.20
  Q 433.97 161.00 433.25 157.46
  Z"
/>
<path fill="#bca3a0" fill-opacity="0.992" d="
  M 130.59 169.73
  Q 131.88 177.12 130.77 184.52
  Q 129.62 177.12 130.59 169.73
  Z"
/>
<path fill="#99786f" fill-opacity="0.992" d="
  M 441.17 172.47
  Q 443.96 177.92 444.76 184.09
  Q 442.00 178.59 441.17 172.47
  Z"
/>
<path fill="#f6bc94" d="
  M 212.07 207.40
  C 257.30 215.30 305.47 210.96 349.95 200.76
  A 2.16 2.16 60.3 0 1 351.92 201.30
  Q 365.01 213.66 368.00 231.50
  C 369.51 240.53 368.82 250.63 368.68 259.51
  Q 368.09 296.02 365.14 333.69
  Q 365.04 334.93 364.56 336.07
  C 355.43 357.73 338.84 387.52 311.61 387.31
  C 302.16 387.24 286.04 382.41 278.94 380.56
  Q 243.56 371.37 208.00 381.00
  Q 198.56 383.56 189.11 380.30
  C 176.67 376.01 162.17 368.63 154.53 357.52
  C 146.96 346.52 143.96 328.39 143.38 315.25
  Q 140.53 250.04 154.55 186.01
  A 0.53 0.53 -66.2 0 1 155.37 185.69
  C 171.54 197.39 192.62 204.00 212.07 207.40
  Z
  M 210.22 264.19
  C 222.77 266.04 225.80 248.29 212.75 246.50
  Q 188.08 243.11 164.87 246.26
  Q 160.48 246.85 158.43 248.23
  C 150.16 253.77 156.05 265.48 166.00 264.00
  Q 187.29 260.82 210.22 264.19
  Z
  M 263.16 248.57
  C 255.96 254.12 261.31 265.42 270.31 264.06
  C 284.20 261.97 299.45 261.76 313.89 263.94
  Q 318.11 264.57 319.25 264.25
  C 326.26 262.26 329.33 253.09 323.33 248.60
  Q 321.28 247.08 316.43 246.36
  Q 292.81 242.87 269.20 246.48
  Q 265.05 247.11 263.16 248.57
  Z
  M 189.1154 302.9700
  A 14.55 9.99 89.9 0 0 199.0800 288.4026
  A 14.55 9.99 89.9 0 0 189.0646 273.8700
  A 14.55 9.99 89.9 0 0 179.1000 288.4374
  A 14.55 9.99 89.9 0 0 189.1154 302.9700
  Z
  M 295.9800 302.9500
  A 14.53 10.00 90.0 0 0 305.9800 288.4200
  A 14.53 10.00 90.0 0 0 295.9800 273.8900
  A 14.53 10.00 90.0 0 0 285.9800 288.4200
  A 14.53 10.00 90.0 0 0 295.9800 302.9500
  Z
  M 220.48 341.03
  C 220.85 368.18 256.96 367.10 260.57 343.35
  A 1.01 1.01 -5.5 0 0 259.23 342.25
  C 250.91 345.21 241.24 348.74 232.86 345.80
  Q 227.15 343.80 221.19 340.60
  A 0.48 0.48 13.6 0 0 220.48 341.03
  Z"
/>
<path fill="#a68983" fill-opacity="0.988" d="
  M 447.63 205.19
  Q 449.35 217.59 447.58 230.01
  Q 446.71 217.59 447.63 205.19
  Z"
/>
<path fill="#cbc2b6" fill-opacity="0.984" d="
  M 131.18 213.22
  Q 132.73 220.22 131.58 227.30
  Q 130.43 220.35 131.18 213.22
  Z"
/>
<path fill="#bca3a0" fill-opacity="0.992" d="
  M 132.22 235.20
  Q 133.64 240.64 132.57 246.11
  Q 131.41 240.79 132.22 235.20
  Z"
/>
<path fill="#99786f" fill-opacity="0.992" d="
  M 447.25 236.92
  Q 447.65 240.28 446.86 243.56
  Q 445.55 240.06 447.25 236.92
  Z"
/>
<path fill="#6a3523" d="
  M 212.75 246.50
  C 225.80 248.29 222.77 266.04 210.22 264.19
  Q 187.29 260.82 166.00 264.00
  C 156.05 265.48 150.16 253.77 158.43 248.23
  Q 160.48 246.85 164.87 246.26
  Q 188.08 243.11 212.75 246.50
  Z"
/>
<path fill="#6a3523" d="
  M 270.31 264.06
  C 261.31 265.42 255.96 254.12 263.16 248.57
  Q 265.05 247.11 269.20 246.48
  Q 292.81 242.87 316.43 246.36
  Q 321.28 247.08 323.33 248.60
  C 329.33 253.09 326.26 262.26 319.25 264.25
  Q 318.11 264.57 313.89 263.94
  C 299.45 261.76 284.20 261.97 270.31 264.06
  Z"
/>
<path fill="#99786f" fill-opacity="0.992" d="
  M 446.46 247.75
  Q 446.73 250.07 446.00 252.29
  C 445.27 251.37 444.92 248.12 446.46 247.75
  Z"
/>
<path fill="#a68983" fill-opacity="0.988" d="
  M 132.79 249.00
  Q 134.54 254.42 133.29 260.00
  L 132.79 249.00
  Z"
/>
<path fill="#99786f" fill-opacity="0.992" d="
  M 133.54 262.00
  Q 135.62 266.36 134.25 271.04
  L 133.54 262.00
  Z"
/>
<path fill="#99786f" fill-opacity="0.992" d="
  M 444.71 263.75
  Q 444.97 266.46 443.96 269.00
  Q 443.28 266.21 444.71 263.75
  Z"
/>
<path fill="#bca3a0" fill-opacity="0.992" d="
  M 443.96 269.50
  Q 443.25 277.98 442.75 279.50
  Q 441.88 282.14 441.95 283.75
  Q 441.97 284.27 441.78 284.70
  Q 441.16 286.15 441.21 287.75
  L 440.79 287.00
  Q 441.71 279.72 443.10 272.52
  C 443.28 271.56 442.80 270.22 443.96 269.50
  Z"
/>
<ellipse fill="#2f333c" cx="0.00" cy="0.00" transform="translate(189.09,288.42) rotate(89.9)" rx="14.55" ry="9.99"/>
<ellipse fill="#2f333c" cx="0.00" cy="0.00" transform="translate(295.98,288.42) rotate(90.0)" rx="14.53" ry="10.00"/>
<path fill="#a68983" fill-opacity="0.988" d="
  M 440.79 287.00
  L 441.21 287.75
  Q 440.17 295.47 437.86 302.99
  Q 438.55 294.85 440.79 287.00
  Z"
/>
<path fill="#99786f" fill-opacity="0.992" d="
  M 137.37 300.48
  Q 139.68 310.64 140.68 320.99
  Q 137.90 310.91 137.37 300.48
  Z"
/>
<path fill="#f6bc94" d="
  M 394.73 370.92
  C 386.95 373.07 377.24 371.07 374.16 362.96
  C 371.06 354.78 374.14 342.12 376.94 333.44
  C 382.69 315.61 395.40 297.77 416.75 308.25
  C 434.00 316.72 424.44 342.19 416.59 353.74
  C 410.81 362.26 404.47 368.24 394.73 370.92
  Z"
/>
<path fill="#99786f" fill-opacity="0.992" d="
  M 436.71 308.25
  Q 437.07 310.37 435.75 312.04
  L 435.50 311.96
  Q 435.54 309.88 436.71 308.25
  Z"
/>
<path fill="#bca3a0" fill-opacity="0.992" d="
  M 435.50 311.96
  L 435.75 312.04
  L 434.96 316.25
  L 434.29 316.25
  L 435.50 311.96
  Z"
/>
<path fill="#cbc2b6" fill-opacity="0.984" d="
  M 434.29 316.25
  L 434.96 316.25
  L 433.46 322.00
  L 432.79 322.00
  L 434.29 316.25
  Z"
/>
<path fill="#99786f" fill-opacity="0.992" d="
  M 145.50 345.32
  Q 143.98 344.26 144.50 342.25
  C 145.08 339.99 143.66 337.26 143.35 335.67
  Q 143.02 333.95 142.75 332.22
  C 142.22 328.82 140.70 326.45 140.79 322.75
  Q 141.08 321.39 141.37 322.78
  C 142.88 330.10 146.24 337.06 145.50 345.32
  Z"
/>
<path fill="#99786f" fill-opacity="0.992" d="
  M 432.79 322.00
  L 433.46 322.00
  C 432.23 325.38 431.59 328.64 430.44 332.30
  C 429.69 334.67 429.56 336.63 427.96 339.25
  L 427.75 339.21
  L 432.79 322.00
  Z"
/>
<path fill="#a68983" fill-opacity="0.988" d="
  M 427.75 339.21
  L 427.96 339.25
  L 423.29 352.75
  Q 423.41 351.93 422.79 352.00
  L 427.75 339.21
  Z"
/>
<path fill="#f3a97c" d="
  M 260.57 343.35
  C 256.96 367.10 220.85 368.18 220.48 341.03
  A 0.48 0.48 13.6 0 1 221.19 340.60
  Q 227.15 343.80 232.86 345.80
  C 241.24 348.74 250.91 345.21 259.23 342.25
  A 1.01 1.01 -5.5 0 1 260.57 343.35
  Z"
/>
<path fill="#bca3a0" fill-opacity="0.992" d="
  M 146.04 354.25
  Q 144.88 352.73 145.29 350.75
  C 146.14 346.40 146.34 353.22 146.04 354.25
  Z"
/>
<path fill="#a68983" fill-opacity="0.988" d="
  M 422.79 352.00
  Q 423.41 351.93 423.29 352.75
  L 419.75 360.79
  L 419.29 360.75
  L 422.79 352.00
  Z"
/>
<path fill="#bca3a0" fill-opacity="0.992" d="
  M 146.29 356.50
  Q 147.48 358.86 147.04 361.50
  Q 145.71 359.22 146.29 356.50
  Z"
/>
<path fill="#bca3a0" fill-opacity="0.992" d="
  M 419.29 360.75
  L 419.75 360.79
  Q 416.22 368.38 412.36 375.80
  C 411.75 376.99 411.77 378.14 410.25 379.04
  L 409.75 378.96
  L 419.29 360.75
  Z"
/>
<path fill="#bca3a0" fill-opacity="0.992" d="
  M 147.20 364.17
  Q 148.35 366.10 148.29 368.50
  L 147.96 369.00
  Q 146.52 366.90 147.20 364.17
  Z"
/>
<path fill="#cbc2b6" fill-opacity="0.984" d="
  M 148.29 368.50
  L 149.00 374.21
  L 148.54 374.50
  Q 147.67 371.84 147.96 369.00
  L 148.29 368.50
  Z"
/>
<path fill="#a68983" fill-opacity="0.988" d="
  M 149.00 374.21
  Q 151.66 386.88 153.26 399.72
  Q 150.14 387.23 148.54 374.50
  L 149.00 374.21
  Z"
/>
<path fill="#bca3a0" fill-opacity="0.992" d="
  M 409.75 378.96
  L 410.25 379.04
  Q 406.50 386.40 401.21 392.75
  L 400.75 392.71
  L 409.75 378.96
  Z"
/>
<path fill="#cbc2b6" fill-opacity="0.984" d="
  M 400.75 392.71
  L 401.21 392.75
  C 397.78 398.23 390.77 405.48 388.06 407.31
  C 384.30 409.86 387.32 412.74 385.29 415.50
  Q 385.23 415.27 385.00 415.21
  C 384.76 411.66 385.14 409.47 387.85 406.86
  Q 394.76 400.21 400.75 392.71
  Z"
/>
<path fill="#bca3a0" fill-opacity="0.992" d="
  M 280.89 409.57
  L 281.91 401.86
  Q 282.24 399.31 279.78 399.31
  L 200.48 399.25
  A 0.76 0.76 -86.1 0 0 199.73 399.91
  C 199.00 405.48 200.84 409.01 201.71 414.25
  Q 201.38 414.51 201.46 415.00
  Q 198.14 407.46 198.96 399.63
  A 1.54 1.53 2.9 0 1 200.49 398.25
  Q 240.22 398.30 279.69 398.19
  C 285.09 398.17 282.15 406.96 280.89 409.57
  Z"
/>
<path fill="#a68983" fill-opacity="0.988" d="
  M 155.33 409.67
  Q 159.07 420.88 161.24 432.46
  Q 157.24 421.34 155.33 409.67
  Z"
/>
<path fill="#a68983" fill-opacity="0.988" d="
  M 280.71 410.75
  Q 280.72 413.18 279.50 415.29
  Q 279.24 415.34 279.04 415.50
  Q 279.19 412.88 280.71 410.75
  Z"
/>
<path fill="#bca3a0" fill-opacity="0.992" d="
  M 201.71 414.25
  Q 202.79 415.72 203.21 417.50
  Q 202.88 417.76 202.96 418.25
  L 201.46 415.00
  Q 201.38 414.51 201.71 414.25
  Z"
/>
<path fill="#99786f" fill-opacity="0.992" d="
  M 279.50 415.29
  L 278.29 418.00
  Q 278.23 417.77 278.00 417.71
  Q 278.21 416.46 279.04 415.50
  Q 279.24 415.34 279.50 415.29
  Z"
/>
<path fill="#bca3a0" fill-opacity="0.992" d="
  M 385.00 415.21
  Q 385.23 415.27 385.29 415.50
  Q 385.19 416.87 384.50 418.04
  L 384.04 418.00
  L 385.00 415.21
  Z"
/>
<path fill="#cbc2b6" fill-opacity="0.984" d="
  M 203.21 417.50
  L 208.37 426.10
  Q 204.74 422.83 202.96 418.25
  Q 202.88 417.76 203.21 417.50
  Z"
/>
<path fill="#bca3a0" fill-opacity="0.992" d="
  M 278.00 417.71
  Q 278.23 417.77 278.29 418.00
  L 276.71 421.00
  Q 276.31 421.08 276.21 420.75
  Q 276.36 418.80 278.00 417.71
  Z"
/>
<path fill="#a68983" fill-opacity="0.988" d="
  M 384.04 418.00
  L 384.50 418.04
  L 379.94 430.58
  A 0.65 0.62 -60.2 0 0 380.11 431.29
  Q 381.40 432.41 379.76 431.95
  A 0.73 0.56 -60.8 0 0 379.09 432.24
  L 376.25 436.04
  Q 376.02 435.98 375.96 435.75
  Q 381.12 427.40 384.04 418.00
  Z"
/>
<path fill="#a68983" fill-opacity="0.988" d="
  M 276.21 420.75
  Q 276.31 421.08 276.71 421.00
  Q 275.00 424.73 271.79 427.25
  L 276.21 420.75
  Z"
/>
<path fill="#bca3a0" fill-opacity="0.992" d="
  M 271.21 428.25
  Q 262.91 437.77 250.54 440.45
  Q 261.40 437.04 269.40 429.10
  A 1.85 1.01 3.1 0 1 270.24 428.70
  Q 270.76 428.59 271.21 428.25
  Z"
/>
<path fill="#a68983" fill-opacity="0.988" d="
  M 212.10 430.36
  Q 214.34 431.59 216.34 433.10
  C 224.28 439.05 231.93 440.93 241.75 441.29
  C 231.46 443.41 218.91 437.46 212.10 430.36
  Z"
/>
<path fill="#99786f" fill-opacity="0.992" d="
  M 375.96 435.75
  Q 376.02 435.98 376.25 436.04
  Q 374.24 439.41 371.29 442.00
  Q 371.23 441.77 371.00 441.71
  L 375.96 435.75
  Z"
/>
<path fill="#99786f" fill-opacity="0.992" d="
  M 248.25 440.29
  Q 248.54 442.19 246.21 441.25
  Q 247.04 440.33 248.25 440.29
  Z"
/>
<path fill="#a68983" fill-opacity="0.988" d="
  M 371.00 441.71
  Q 371.23 441.77 371.29 442.00
  C 369.63 443.74 368.67 445.39 366.71 446.79
  Q 354.77 455.30 341.45 461.46
  Q 317.70 472.44 294.00 483.54
  Q 293.68 483.25 293.25 483.21
  C 313.97 473.28 335.71 464.03 355.44 453.44
  Q 363.86 448.92 371.00 441.71
  Z"
/>
<path fill="#bca3a0" fill-opacity="0.992" d="
  M 164.08 442.20
  Q 166.53 445.68 167.79 449.75
  Q 167.83 450.33 167.29 450.25
  L 164.08 442.20
  Z"
/>
<path fill="#a68983" fill-opacity="0.988" d="
  M 167.79 449.75
  C 169.13 452.67 174.72 463.17 174.25 463.79
  Q 172.94 463.36 172.91 462.07
  Q 172.89 461.52 172.70 461.13
  L 167.29 450.25
  Q 167.83 450.33 167.79 449.75
  Z"
/>
<path fill="#a68983" fill-opacity="0.988" d="
  M 175.56 465.49
  C 178.08 469.09 184.48 477.88 183.25 477.79
  Q 178.67 472.11 175.56 465.49
  Z"
/>
<path fill="#a68983" fill-opacity="0.988" d="
  M 184.25 478.79
  Q 188.28 482.51 191.10 487.23
  Q 186.80 483.68 184.25 478.79
  Z"
/>
<path fill="#bca3a0" fill-opacity="0.992" d="
  M 293.25 483.21
  Q 293.68 483.25 294.00 483.54
  L 289.79 485.25
  Q 291.14 483.65 293.25 483.21
  Z"
/>
<path fill="#a68983" fill-opacity="0.988" d="
  M 284.91 487.18
  Q 262.33 497.02 235.06 504.06
  C 233.26 504.53 231.72 504.48 230.33 504.78
  Q 224.69 506.01 219.00 504.71
  Q 218.92 504.31 219.25 504.21
  Q 230.49 505.06 241.26 501.80
  Q 263.30 495.13 284.91 487.18
  Z"
/>
<path fill="#a68983" fill-opacity="0.988" d="
  M 215.50 503.54
  L 215.46 503.75
  C 213.21 503.52 206.15 501.33 204.24 498.96
  Q 203.91 498.56 203.48 498.36
  Q 200.01 496.70 197.68 493.43
  Q 205.67 500.15 215.50 503.54
  Z"
/>
<path fill="#99786f" fill-opacity="0.992" d="
  M 215.50 503.54
  Q 217.45 503.48 219.25 504.21
  Q 218.92 504.31 219.00 504.71
  Q 217.00 504.82 215.46 503.75
  L 215.50 503.54
  Z"
/>
</svg>
