<?xml version="1.0" standalone="no"?>
<!DOCTYPE svg PUBLIC "-//W3C//DTD SVG 20010904//EN"
 "http://www.w3.org/TR/2001/REC-SVG-20010904/DTD/svg10.dtd">
<svg version="1.0" xmlns="http://www.w3.org/2000/svg"
 width="626.000000pt" height="626.000000pt" viewBox="0 0 626.000000 626.000000"
 preserveAspectRatio="xMidYMid meet">
<metadata>
Created by potrace 1.11, written by Peter Selinger 2001-2013
</metadata>
<g transform="translate(0.000000,626.000000) scale(0.100000,-0.100000)"
fill="#000000" stroke="none">
<path d="M3178 5644 c-141 -21 -307 -65 -441 -118 -125 -49 -258 -85 -422
-112 -139 -24 -420 -24 -537 -1 -171 34 -350 109 -436 182 -22 19 -42 35 -44
35 -7 0 -26 -93 -43 -205 -19 -128 -20 -394 -1 -500 33 -185 89 -334 169 -449
l47 -67 0 -252 c0 -600 46 -1181 124 -1572 19 -93 37 -204 41 -245 19 -228 96
-641 165 -895 102 -369 343 -720 561 -815 80 -35 199 -39 315 -10 150 38 489
158 623 222 69 33 196 91 281 130 479 217 595 298 680 472 37 76 70 178 70
218 0 9 9 22 20 28 29 16 150 163 213 260 225 348 388 919 447 1560 13 149 13
457 -1 557 -41 300 -168 515 -346 583 -43 16 -48 21 -46 47 21 258 14 325 -54
463 -48 100 -192 245 -307 310 -154 87 -338 147 -536 175 -131 18 -410 18
-542 -1z m-1287 -1559 c91 -47 274 -108 411 -139 408 -90 975 -76 1526 38
l113 23 49 -54 c55 -60 101 -148 127 -244 15 -54 18 -101 16 -309 -2 -242 -16
-580 -33 -795 -8 -105 -10 -113 -64 -221 -112 -225 -222 -356 -353 -421 -63
-31 -87 -37 -156 -41 -72 -4 -106 2 -277 43 -240 57 -272 63 -390 75 -122 12
-310 -3 -455 -35 -151 -34 -225 -33 -323 5 -179 69 -328 185 -378 295 -14 30
-40 108 -57 173 -30 116 -31 120 -35 417 -4 319 6 529 39 790 19 149 74 459
86 477 2 5 23 -3 46 -17 23 -14 72 -41 108 -60z m2710 -1260 c120 -31 168 -83
176 -189 14 -174 -107 -402 -264 -500 -120 -74 -260 -51 -312 51 -31 62 3 287
64 422 53 115 139 200 222 220 53 13 53 13 114 -4z m-1443 -1102 c-10 -125
-69 -233 -175 -319 -86 -70 -147 -89 -288 -89 -114 0 -123 2 -188 32 -91 43
-178 127 -221 214 -33 66 -64 198 -51 219 4 7 159 10 467 10 l461 0 -5 -67z"/>
<path d="M1910 3509 c-129 -14 -166 -35 -176 -100 -3 -24 1 -44 16 -67 29 -46
58 -55 147 -42 97 13 331 13 428 -1 68 -9 80 -8 108 8 45 27 63 79 44 126 -9
20 -28 42 -44 50 -60 31 -336 45 -523 26z"/>
<path d="M3086 3508 c-105 -11 -141 -27 -163 -72 -19 -40 -12 -74 21 -112 18
-22 31 -28 62 -27 22 1 120 4 219 8 121 5 209 4 268 -4 81 -11 91 -10 120 6
18 11 37 34 45 54 12 31 11 41 -1 72 -9 20 -28 42 -44 50 -60 32 -336 45 -527
25z"/>
<path d="M2065 3168 c-37 -29 -55 -76 -55 -143 0 -67 18 -114 55 -143 43 -34
87 -29 123 13 68 77 67 192 -3 262 -39 39 -79 43 -120 11z"/>
<path d="M3259 3162 c-68 -61 -70 -203 -4 -269 95 -95 215 40 171 192 -29 98
-104 133 -167 77z"/>
</g>
</svg>
