<?xml version="1.0" standalone="no"?>
<!DOCTYPE svg PUBLIC "-//W3C//DTD SVG 20010904//EN"
 "http://www.w3.org/TR/2001/REC-SVG-20010904/DTD/svg10.dtd">
<svg version="1.0" xmlns="http://www.w3.org/2000/svg"
 width="626.000000pt" height="626.000000pt" viewBox="0 0 626.000000 626.000000"
 preserveAspectRatio="xMidYMid meet">
<metadata>
Created by potrace 1.11, written by Peter Selinger 2001-2013
</metadata>
<g transform="translate(0.000000,626.000000) scale(0.100000,-0.100000)"
fill="#000000" stroke="none">
<path d="M3187 5645 c-140 -20 -295 -60 -423 -111 -283 -112 -628 -164 -883
-135 -210 25 -406 95 -531 190 l-55 42 -12 -53 c-49 -212 -56 -552 -14 -728
36 -156 94 -291 167 -393 l34 -47 0 -228 c0 -595 48 -1218 121 -1572 33 -158
32 -153 54 -350 44 -387 144 -836 231 -1033 50 -113 132 -256 197 -343 74 -98
195 -207 273 -245 65 -32 74 -34 179 -34 99 0 123 4 234 38 219 67 441 153
676 262 367 170 533 252 605 300 143 95 240 234 276 395 15 66 22 79 72 129
320 324 540 953 618 1766 22 226 15 550 -14 675 -58 247 -166 406 -324 475
l-65 28 14 56 c17 75 16 211 -3 291 -51 218 -238 410 -508 521 -254 105 -614
145 -919 104z m-1394 -1504 c140 -95 407 -183 697 -228 93 -15 177 -18 435
-18 354 0 497 13 844 79 l171 32 39 -40 c93 -97 148 -234 158 -396 6 -97 -9
-551 -28 -875 l-10 -180 -59 -123 c-160 -332 -321 -472 -544 -472 -51 0 -121
12 -232 39 -303 75 -368 84 -559 78 -140 -4 -197 -10 -320 -37 -136 -29 -156
-31 -210 -20 -94 17 -289 118 -367 189 -86 79 -119 145 -164 322 l-36 144 0
305 c-1 318 9 490 42 750 24 186 81 480 93 480 5 0 27 -13 50 -29z m2821
-1315 c118 -36 165 -99 166 -221 0 -82 -38 -202 -91 -291 -50 -83 -155 -177
-226 -204 -68 -26 -154 -23 -204 7 -77 44 -93 165 -45 346 62 232 183 372 327
376 14 1 47 -5 73 -13z m-1449 -1045 c3 -6 1 -41 -5 -78 -40 -253 -279 -431
-527 -393 -147 22 -288 125 -351 253 -28 59 -52 151 -52 204 l0 23 464 0 c283
0 467 -4 471 -9z"/>
<path d="M1927 3509 c-125 -11 -163 -27 -183 -75 -13 -32 -14 -42 -2 -73 19
-52 65 -71 143 -61 83 11 367 12 443 0 37 -5 74 -5 87 0 67 26 89 114 39 163
-30 30 -43 34 -189 47 -124 11 -197 11 -338 -1z"/>
<path d="M3107 3509 c-54 -5 -113 -16 -133 -24 -77 -32 -79 -140 -3 -177 29
-15 44 -16 94 -8 75 12 359 13 443 0 71 -10 99 -3 131 31 26 28 28 89 5 124
-21 32 -57 42 -194 55 -130 11 -202 11 -343 -1z"/>
<path d="M2072 3174 c-105 -73 -67 -314 49 -314 51 0 96 51 110 125 24 128
-76 247 -159 189z"/>
<path d="M3268 3170 c-37 -29 -58 -81 -58 -144 0 -68 18 -115 55 -144 52 -41
122 -16 151 54 8 19 14 58 14 89 0 67 -18 114 -55 143 -34 27 -75 28 -107 2z"/>
</g>
</svg>
